# xmcd
#
# Track frame offsets:
#	150
#	21567
#	38607
#	59437
#	71982
#	84545
#	93442
#	109092
#	126080
#	149495
#	166605
#
# Disc length: 2411 seconds
#
# Revision: 0
# Processed by: cddbd v1.4PL0 Copyright (c) Steve Scherf et al.
# Submitted via: dBpowerAMP V4.0
#
DISCID=9809690b
DTITLE=Simone - XXI Grandes Sucesso (Disco 1)
DYEAR=1900
DGENRE=MPB
TTITLE0=Você é Linda
TTITLE1=Pétala
TTITLE2=Esquinas
TTITLE3=Meu Bem Querer
TTITLE4=Raios de Luz
TTITLE5=carinhoso
TTITLE6=Seu Corpo
TTITLE7=Mania de Você
TTITLE8=Será
TTITLE9=Trocando em Miúdos
TTITLE10=Quem é Você
EXTD=
EXTT0=
EXTT1=
EXTT2=
EXTT3=
EXTT4=
EXTT5=
EXTT6=
EXTT7=
EXTT8=
EXTT9=
EXTT10=
PLAYORDER=
